<svg width="66" height="66" viewBox="0 0 66 66" fill="none" xmlns="http://www.w3.org/2000/svg">
<g clip-path="url(#clip0_25_55)">
<path d="M32.7699 65.5398C50.8682 65.5398 65.5398 50.8682 65.5398 32.7699C65.5398 14.6716 50.8682 0 32.7699 0C14.6716 0 0 14.6716 0 32.7699C0 50.8682 14.6716 65.5398 32.7699 65.5398Z" fill="#9CDDF9"/>
<path fill-rule="evenodd" clip-rule="evenodd" d="M14.1004 51C13.2543 50.6601 12.9064 50.0227 12.9845 49.1299C12.9961 48.9928 12.9764 48.8506 12.9881 48.712C13.0537 47.8966 12.9845 47.1796 12.2901 46.5538C11.6928 46.0141 11.5024 45.1906 11.5002 44.3774C11.4907 41.4447 11.4922 38.5104 11.498 35.5784C11.5002 34.7294 11.7934 33.9731 12.2894 33.2868C12.9436 32.3816 13.5891 31.4706 14.2368 30.5611C14.3228 30.4401 14.398 30.3117 14.5322 30.1031C14.2842 30.1031 14.1215 30.1031 13.9589 30.1031C12.9502 30.1031 11.9422 30.1097 10.9335 30.1009C10.2457 30.0943 10.0072 29.8515 10.0036 29.1746C9.99918 28.3213 9.99846 27.4672 10.0036 26.6138C10.0079 25.9662 10.2486 25.7182 10.9094 25.7123C12.0268 25.7021 13.1442 25.7131 14.2608 25.7087C14.7481 25.7065 15.0464 25.9144 15.1572 26.4052C15.2819 26.9603 15.4373 27.5088 15.6131 28.1893C16.1316 26.7225 16.6057 25.3856 17.0776 24.0479C17.7012 22.2807 18.3234 20.5127 18.947 18.7455C19.5954 16.9082 20.8652 16.0024 22.8111 16.0016C29.67 15.9995 36.5289 15.9995 43.3871 16.0016C45.3338 16.0024 46.6058 16.909 47.2535 18.744C48.3015 21.7089 49.3467 24.6737 50.3941 27.6386C50.4437 27.7786 50.4998 27.9179 50.5939 28.1674C50.7588 27.5248 50.8908 26.9865 51.0337 26.4519C51.1927 25.8582 51.3692 25.7153 51.9826 25.7116C53.0686 25.7043 54.1554 25.7043 55.2414 25.7116C55.9649 25.716 56.1932 25.9479 56.1969 26.6583C56.1998 27.4964 56.2005 28.3344 56.1961 29.1724C56.1925 29.8507 55.9547 30.0951 55.2684 30.1009C54.2604 30.1104 53.251 30.1031 52.243 30.1031C52.0804 30.1031 51.9177 30.1031 51.6449 30.1031C51.9031 30.4685 52.0935 30.7435 52.2875 31.0163C52.8367 31.7865 53.3845 32.5581 53.9373 33.3261C54.4617 34.0555 54.7119 34.8651 54.7097 35.7651C54.7024 38.5586 54.701 41.3506 54.7097 44.144C54.7126 45.3278 54.3049 46.3175 53.4268 47.1227C53.3101 47.2292 53.2328 47.432 53.2247 47.5946C53.1999 48.1059 53.1868 48.6201 53.2218 49.1299C53.2816 50.0248 52.949 50.6608 52.1022 51C50.3941 51 48.6874 51 46.9799 51C46.1368 50.6922 45.7794 50.0847 45.8421 49.197C45.8691 48.8163 45.8465 48.4312 45.8465 48.0512C37.3188 48.0512 28.8532 48.0512 20.3561 48.0512C20.3561 48.456 20.3335 48.828 20.3612 49.1956C20.4269 50.0847 20.0695 50.6922 19.2263 51C17.5152 51 15.8085 51 14.1004 51ZM49.2534 28.7005C49.1906 28.4839 49.1556 28.3373 49.1068 28.1965C48.0506 25.2018 46.9945 22.2063 45.9355 19.213C45.4738 17.9082 44.743 17.3984 43.3426 17.3976C36.5144 17.3969 29.6854 17.3969 22.8571 17.3976C21.4421 17.3984 20.7259 17.9111 20.2503 19.2568C19.2643 22.0459 18.2782 24.8357 17.2928 27.6262C17.1761 27.9566 17.0696 28.2906 16.9325 28.7013C17.1972 28.7013 17.3927 28.7013 17.5875 28.7013C25.5798 28.7013 33.5736 28.7005 41.5659 28.702C41.7665 28.702 41.97 28.7049 42.1691 28.7319C42.5323 28.7793 42.7241 29.0244 42.738 29.3643C42.7533 29.726 42.5732 29.9951 42.1917 30.0608C41.9795 30.0973 41.7599 30.1024 41.544 30.1024C33.3489 30.1038 25.1546 30.1089 16.9602 30.09C16.446 30.0892 16.1492 30.2497 15.8683 30.664C15.085 31.8186 14.2638 32.9491 13.4425 34.0781C13.0618 34.6011 12.8853 35.1678 12.8875 35.814C12.8969 38.2661 12.8911 40.7182 12.8911 43.1703C12.8911 43.3176 12.8911 43.4642 12.8911 43.6116C17.1827 43.6116 21.3984 43.6116 25.6717 43.6116C25.6717 43.4066 25.6702 43.2258 25.6717 43.0449C25.6921 41.3228 25.6615 39.5994 25.7475 37.881C25.8285 36.2691 27.3339 34.7644 28.9582 34.7272C31.7188 34.6631 34.4831 34.6631 37.243 34.728C38.8673 34.7659 40.3676 36.2713 40.4493 37.8861C40.5353 39.603 40.5054 41.3287 40.5251 43.05C40.5273 43.2294 40.5251 43.4103 40.5251 43.605C44.8137 43.605 49.0404 43.605 53.2772 43.605C53.2889 43.5175 53.3035 43.4584 53.3035 43.3986C53.3042 40.7919 53.3261 38.1829 53.2823 35.5762C53.2743 35.1116 53.0759 34.593 52.8134 34.1999C51.9469 32.8958 51.017 31.6333 50.0899 30.3708C49.9842 30.2285 49.7406 30.1228 49.5575 30.1155C48.7982 30.087 48.0368 30.1031 47.2761 30.1031C46.5781 30.1031 45.8793 30.1148 45.1813 30.098C44.6168 30.0841 44.3039 29.7749 44.3674 29.3147C44.4301 28.8581 44.7503 28.7071 45.1646 28.7042C46.0646 28.6983 46.9654 28.7013 47.8647 28.7013C48.3103 28.6998 48.7545 28.7005 49.2534 28.7005ZM53.1088 45.0718C39.7658 45.0718 26.4244 45.0718 13.0829 45.0718C13.0829 45.1403 13.0764 45.1717 13.0844 45.2001C13.0968 45.2446 13.115 45.2876 13.1362 45.3285C13.6329 46.2716 14.4388 46.6231 15.4752 46.6224C27.2201 46.6151 38.9657 46.618 50.7114 46.618C50.8813 46.618 51.0542 46.6209 51.2226 46.6027C52.154 46.5079 52.9505 45.8609 53.1088 45.0718ZM39.0977 42.0828C35.0761 42.0828 31.0959 42.0828 27.1027 42.0828C27.1027 42.6051 27.1027 43.0952 27.1027 43.6094C31.1113 43.6094 35.0899 43.6094 39.0977 43.6094C39.0977 43.0945 39.0977 42.6058 39.0977 42.0828ZM27.1034 40.6154C31.1258 40.6154 35.1023 40.6154 39.0992 40.6154C39.0992 40.0917 39.0992 39.603 39.0992 39.0895C35.0914 39.0895 31.112 39.0895 27.1034 39.0895C27.1034 39.5994 27.1034 40.0888 27.1034 40.6154ZM38.9329 37.6432C38.7681 36.8125 37.941 36.1247 37.0103 36.097C35.9403 36.0642 34.8689 36.0795 33.7989 36.0795C32.2782 36.0795 30.7568 36.0663 29.2361 36.0948C28.2726 36.1116 27.4367 36.795 27.2675 37.644C31.1579 37.6432 35.0425 37.6432 38.9329 37.6432ZM14.4235 48.0366C14.4235 48.5778 14.4235 49.0774 14.4235 49.5777C15.9427 49.5777 17.4226 49.5777 18.9251 49.5777C18.9251 49.0541 18.9251 48.5552 18.9251 48.0366C17.4153 48.0366 15.934 48.0366 14.4235 48.0366ZM47.2637 49.561C48.8077 49.561 50.2985 49.561 51.7857 49.561C51.7857 49.0322 51.7857 48.5435 51.7857 48.0454C50.265 48.0454 48.7734 48.0454 47.2637 48.0454C47.2637 48.5625 47.2637 49.0526 47.2637 49.561ZM14.2769 28.6772C14.1624 28.2097 14.0749 27.8034 13.9574 27.4059C13.9253 27.2958 13.805 27.1324 13.7218 27.131C12.9582 27.1091 12.1938 27.1178 11.4273 27.1178C11.4273 27.6802 11.4273 28.1666 11.4273 28.6772C12.3754 28.6772 13.2966 28.6772 14.2769 28.6772ZM54.7746 28.6684C54.7746 28.1477 54.7746 27.659 54.7746 27.1164C53.9993 27.1164 53.2481 27.1091 52.4961 27.1258C52.4159 27.1273 52.2919 27.2535 52.2649 27.3439C52.1402 27.7684 52.0424 28.2002 51.9257 28.6677C52.9031 28.6684 53.8359 28.6684 54.7746 28.6684Z" fill="white"/>
<path fill-rule="evenodd" clip-rule="evenodd" d="M33.1025 27.8574C28.6162 27.8574 24.1306 27.8574 19.6443 27.8574C19.505 27.8574 19.365 27.8625 19.225 27.8545C18.5583 27.8144 18.2731 27.422 18.4868 26.7874C18.8391 25.7444 19.2177 24.7117 19.5845 23.6745C20.0805 22.2727 20.5743 20.8694 21.0724 19.4683C21.3963 18.5559 21.8353 18.24 22.8083 18.24C29.6687 18.2379 36.5298 18.2379 43.3909 18.24C44.3609 18.24 44.8044 18.558 45.1267 19.4683C45.9655 21.8343 46.8013 24.2011 47.6365 26.5679C47.9676 27.508 47.713 27.8567 46.6992 27.8574C42.1677 27.8574 37.6355 27.8574 33.1025 27.8574ZM46.0742 26.4264C46.0209 26.2389 45.9874 26.0902 45.9371 25.9472C45.2478 23.9889 44.5484 22.0342 43.873 20.0707C43.7585 19.7374 43.6009 19.6287 43.245 19.6295C36.4787 19.6419 29.711 19.6419 22.9447 19.6295C22.5807 19.6295 22.4363 19.7586 22.3247 20.0824C21.6472 22.0444 20.9492 23.9998 20.2607 25.9581C20.2111 26.0989 20.1768 26.2455 20.1257 26.4264C28.7942 26.4264 37.4138 26.4264 46.0742 26.4264Z" fill="white"/>
<path fill-rule="evenodd" clip-rule="evenodd" d="M19.6703 36.1772C20.7279 36.1758 21.7285 36.3924 22.6519 36.9285C24.4301 37.9627 24.5577 39.8518 22.9269 41.096C21.2909 42.344 18.0241 42.3374 16.3794 41.0807C14.7697 39.8525 14.8922 37.97 16.6449 36.9423C17.5807 36.3939 18.5967 36.1714 19.6703 36.1772ZM19.6484 37.5732C18.7805 37.5783 17.9497 37.7373 17.2233 38.2421C16.4553 38.7745 16.4553 39.4141 17.205 39.9561C18.4574 40.8583 20.8504 40.8641 22.1027 39.9684C22.8773 39.4149 22.8714 38.7635 22.0786 38.2275C21.3463 37.7308 20.5171 37.5761 19.6484 37.5732Z" fill="white"/>
<path fill-rule="evenodd" clip-rule="evenodd" d="M46.5232 36.175C47.7259 36.1838 48.8768 36.4063 49.8505 37.156C51.3559 38.3135 51.334 39.9218 49.825 41.0771C48.1818 42.3367 44.9171 42.3469 43.2775 41.0997C41.6408 39.8561 41.7619 37.9664 43.543 36.9321C44.419 36.4245 45.3817 36.1794 46.5232 36.175ZM46.5327 37.574C45.6961 37.574 44.896 37.7286 44.1812 38.1837C43.3096 38.7402 43.3031 39.4309 44.1513 40.0042C45.4051 40.8517 47.6792 40.8473 48.9352 39.9969C49.763 39.4353 49.7637 38.7584 48.9221 38.2041C48.1993 37.7271 47.3846 37.574 46.5327 37.574Z" fill="white"/>
<path fill-rule="evenodd" clip-rule="evenodd" d="M19.6757 35.3319C18.9638 35.3319 18.2512 35.3472 17.5394 35.3275C16.9318 35.3093 16.5591 34.8556 16.7983 34.399C16.9056 34.1941 17.2024 33.9651 17.419 33.9592C18.9047 33.9198 20.3912 33.93 21.8776 33.9424C22.324 33.9461 22.5902 34.2349 22.5844 34.6339C22.58 35.0219 22.3138 35.3056 21.8586 35.3209C21.1315 35.3457 20.4036 35.3282 19.6757 35.3282C19.6757 35.3282 19.6757 35.3304 19.6757 35.3319Z" fill="white"/>
<path fill-rule="evenodd" clip-rule="evenodd" d="M46.5592 33.9329C47.2557 33.9329 47.953 33.9256 48.6488 33.9359C49.1594 33.9432 49.4708 34.2137 49.4723 34.6215C49.473 35.0255 49.1579 35.3231 48.6539 35.3275C47.2455 35.3406 45.8364 35.3406 44.4273 35.3282C43.9058 35.3231 43.6184 35.0496 43.6162 34.6266C43.614 34.1977 43.8978 33.9432 44.4222 33.9359C45.1348 33.9256 45.8473 33.9329 46.5592 33.9329Z" fill="white"/>
</g>
<defs>
<clipPath id="clip0_25_55">
<rect width="66" height="66" fill="white"/>
</clipPath>
</defs>
</svg>
